<svg xmlns="http://www.w3.org/2000/svg" viewBox="0 0 800 500">
  <defs>
    <linearGradient id="g3" x1="0%" y1="0%" x2="100%" y2="100%">
      <stop offset="0%" style="stop-color:#0c1120"/>
      <stop offset="50%" style="stop-color:#111827"/>
      <stop offset="100%" style="stop-color:#0c1120"/>
    </linearGradient>
    <linearGradient id="accent3" x1="0%" y1="0%" x2="100%" y2="0%">
      <stop offset="0%" style="stop-color:#06b6d4"/>
      <stop offset="100%" style="stop-color:#3b82f6"/>
    </linearGradient>
  </defs>
  <rect width="800" height="500" fill="url(#g3)"/>
  <!-- Header bar -->
  <rect x="0" y="0" width="800" height="54" fill="rgba(10,15,25,0.95)"/>
  <circle cx="28" cy="27" r="16" fill="url(#accent3)"/>
  <text x="28" y="32" fill="white" font-size="14" font-weight="bold" font-family="monospace" text-anchor="middle">MS</text>
  <text x="58" y="32" fill="white" font-size="16" font-weight="bold" font-family="sans-serif">Minh Stark Agent OS</text>
  <rect x="660" y="14" width="120" height="26" rx="13" fill="rgba(6,182,212,0.15)" stroke="rgba(6,182,212,0.5)" stroke-width="1"/>
  <text x="720" y="31" fill="#06b6d4" font-size="11" font-family="sans-serif" text-anchor="middle">● localhost:2006</text>
  <!-- Left sidebar -->
  <rect x="0" y="54" width="190" height="446" fill="rgba(10,15,25,0.9)"/>
  <!-- AutoPilot banner -->
  <rect x="10" y="68" width="170" height="50" rx="8" fill="rgba(6,182,212,0.15)" stroke="rgba(6,182,212,0.4)" stroke-width="1"/>
  <text x="95" y="88" fill="#67e8f9" font-size="11" font-weight="bold" font-family="sans-serif" text-anchor="middle">🤖 AutoPilot</text>
  <text x="95" y="105" fill="#6b7280" font-size="10" font-family="sans-serif" text-anchor="middle">Tự chọn agent &amp; model</text>
  <!-- Agent list -->
  <text x="20" y="142" fill="#4b5563" font-size="10" font-family="sans-serif" letter-spacing="1">AGENTS</text>
  <rect x="10" y="150" width="170" height="32" rx="6" fill="rgba(6,182,212,0.2)"/>
  <text x="30" y="171" fill="#06b6d4" font-size="12" font-family="sans-serif">💬 AI Chat Agent</text>
  <text x="30" y="202" fill="#6b7280" font-size="12" font-family="sans-serif">⚡ Automation Agent</text>
  <text x="30" y="232" fill="#6b7280" font-size="12" font-family="sans-serif">📋 Work Agent</text>
  <text x="30" y="262" fill="#6b7280" font-size="12" font-family="sans-serif">📚 Study Agent</text>
  <text x="30" y="292" fill="#6b7280" font-size="12" font-family="sans-serif">📊 Data Science Agent</text>
  <text x="30" y="322" fill="#6b7280" font-size="12" font-family="sans-serif">🔍 Review Agent</text>
  <!-- Main chat area -->
  <rect x="200" y="64" width="600" height="420" rx="0" fill="rgba(15,22,36,0.5)"/>
  <!-- Chat messages -->
  <!-- User message -->
  <rect x="450" y="85" width="335" height="55" rx="12" fill="rgba(6,182,212,0.2)" stroke="rgba(6,182,212,0.3)" stroke-width="1"/>
  <text x="465" y="107" fill="#e5e7eb" font-size="12" font-family="sans-serif">Thêm task: hoàn thành báo cáo</text>
  <text x="465" y="127" fill="#e5e7eb" font-size="12" font-family="sans-serif">data science ngày mai, ưu tiên cao</text>
  <!-- AI response -->
  <rect x="215" y="157" width="380" height="90" rx="12" fill="rgba(30,40,60,0.8)" stroke="rgba(59,130,246,0.3)" stroke-width="1"/>
  <text x="230" y="178" fill="#06b6d4" font-size="11" font-weight="bold" font-family="sans-serif">🤖 AutoPilot → Work Agent</text>
  <text x="230" y="200" fill="#d1d5db" font-size="12" font-family="sans-serif">✅ Đã tạo task mới:</text>
  <text x="230" y="220" fill="#67e8f9" font-size="12" font-family="sans-serif">  • Báo cáo Data Science | Deadline: mai</text>
  <text x="230" y="236" fill="#67e8f9" font-size="12" font-family="sans-serif">  • Priority: 🔴 Cao</text>
  <!-- Task cards -->
  <rect x="215" y="265" width="580" height="50" rx="8" fill="rgba(20,30,50,0.8)" stroke="rgba(239,68,68,0.4)" stroke-width="1"/>
  <rect x="225" y="278" width="8" height="24" rx="4" fill="#ef4444"/>
  <text x="245" y="290" fill="#f87171" font-size="11" font-family="sans-serif">🔴 Báo cáo Data Science</text>
  <text x="245" y="306" fill="#6b7280" font-size="10" font-family="sans-serif">Deadline: Ngày mai | Ưu tiên: Cao</text>
  <rect x="680" y="278" width="100" height="24" rx="12" fill="rgba(239,68,68,0.2)"/>
  <text x="730" y="294" fill="#f87171" font-size="10" font-family="sans-serif" text-anchor="middle">Đang làm</text>
  <rect x="215" y="325" width="580" height="50" rx="8" fill="rgba(20,30,50,0.8)" stroke="rgba(16,185,129,0.3)" stroke-width="1"/>
  <rect x="225" y="338" width="8" height="24" rx="4" fill="#10b981"/>
  <text x="245" y="350" fill="#34d399" font-size="11" font-family="sans-serif">🟢 Học Python Machine Learning</text>
  <text x="245" y="366" fill="#6b7280" font-size="10" font-family="sans-serif">Session: 2h | Tiến độ: 65%</text>
  <rect x="680" y="338" width="100" height="24" rx="12" fill="rgba(16,185,129,0.2)"/>
  <text x="730" y="354" fill="#34d399" font-size="10" font-family="sans-serif" text-anchor="middle">Hoàn thành</text>
  <!-- Input bar -->
  <rect x="215" y="440" width="580" height="44" rx="22" fill="rgba(20,30,50,0.9)" stroke="rgba(6,182,212,0.3)" stroke-width="1"/>
  <text x="240" y="467" fill="#4b5563" font-size="13" font-family="sans-serif">Nhập lệnh hoặc yêu cầu bằng tiếng Việt...</text>
  <circle cx="773" cy="462" r="16" fill="url(#accent3)"/>
  <text x="773" y="467" fill="white" font-size="14" font-family="sans-serif" text-anchor="middle">➤</text>
  <!-- Gemini badge -->
  <rect x="560" y="170" width="230" height="75" rx="10" fill="rgba(20,30,50,0.8)" stroke="rgba(59,130,246,0.3)" stroke-width="1"/>
  <text x="575" y="192" fill="#60a5fa" font-size="11" font-weight="bold" font-family="sans-serif">⚡ Powered by</text>
  <text x="575" y="212" fill="#93c5fd" font-size="13" font-weight="bold" font-family="sans-serif">Gemini 2.0 Flash</text>
  <text x="575" y="232" fill="#6b7280" font-size="10" font-family="sans-serif">+ Langflow Workflow Engine</text>
</svg>