<svg xmlns="http://www.w3.org/2000/svg" viewBox="0 0 800 500">
  <defs>
    <linearGradient id="g2" x1="0%" y1="0%" x2="100%" y2="100%">
      <stop offset="0%" style="stop-color:#0a0a0f"/>
      <stop offset="50%" style="stop-color:#0d1117"/>
      <stop offset="100%" style="stop-color:#0a0f1a"/>
    </linearGradient>
    <linearGradient id="accent2" x1="0%" y1="0%" x2="100%" y2="0%">
      <stop offset="0%" style="stop-color:#4f46e5"/>
      <stop offset="100%" style="stop-color:#7c3aed"/>
    </linearGradient>
  </defs>
  <rect width="800" height="500" fill="url(#g2)"/>
  <!-- Sidebar -->
  <rect x="0" y="0" width="200" height="500" fill="rgba(15,15,25,0.95)"/>
  <rect x="0" y="0" width="200" height="500" fill="none" stroke="rgba(79,70,229,0.3)" stroke-width="1"/>
  <!-- Logo -->
  <rect x="15" y="15" width="40" height="40" rx="10" fill="url(#accent2)"/>
  <text x="35" y="42" fill="white" font-size="22" font-weight="bold" font-family="sans-serif" text-anchor="middle">G</text>
  <text x="70" y="35" fill="white" font-size="16" font-weight="bold" font-family="sans-serif">GEMERA</text>
  <text x="70" y="50" fill="#6b7280" font-size="10" font-family="sans-serif">v5.0</text>
  <!-- Nav items -->
  <rect x="10" y="80" width="180" height="36" rx="8" fill="rgba(79,70,229,0.2)"/>
  <text x="40" y="103" fill="#a5b4fc" font-size="13" font-family="sans-serif">📊 Tổng quan</text>
  <text x="40" y="138" fill="#6b7280" font-size="13" font-family="sans-serif">📈 Phân tích</text>
  <text x="40" y="173" fill="#6b7280" font-size="13" font-family="sans-serif">⚙️ Quản lý</text>
  <text x="40" y="208" fill="#6b7280" font-size="13" font-family="sans-serif">🖥️ Hệ thống</text>
  <!-- Status -->
  <circle cx="20" cy="460" r="6" fill="#10b981"/>
  <text x="33" y="465" fill="#10b981" font-size="11" font-family="sans-serif">TRỰC TUYẾN</text>
  <!-- Main content -->
  <!-- Header -->
  <rect x="210" y="10" width="580" height="50" rx="8" fill="rgba(20,20,35,0.8)"/>
  <text x="225" y="40" fill="white" font-size="16" font-weight="bold" font-family="sans-serif">GEMERA TRUNG TÂM ĐIỀU KHIỂN</text>
  <rect x="680" y="20" width="80" height="28" rx="14" fill="rgba(16,185,129,0.2)" stroke="#10b981" stroke-width="1"/>
  <text x="720" y="39" fill="#10b981" font-size="11" font-family="sans-serif" text-anchor="middle">● LIVE</text>
  <!-- Stat cards -->
  <rect x="210" y="75" width="130" height="75" rx="10" fill="rgba(79,70,229,0.15)" stroke="rgba(79,70,229,0.4)" stroke-width="1"/>
  <text x="275" y="100" fill="#6b7280" font-size="11" font-family="sans-serif" text-anchor="middle">Người theo dõi</text>
  <text x="275" y="128" fill="white" font-size="22" font-weight="bold" font-family="sans-serif" text-anchor="middle">12.4K</text>
  <rect x="355" y="75" width="130" height="75" rx="10" fill="rgba(16,185,129,0.15)" stroke="rgba(16,185,129,0.4)" stroke-width="1"/>
  <text x="420" y="100" fill="#6b7280" font-size="11" font-family="sans-serif" text-anchor="middle">Tổng lượt xem</text>
  <text x="420" y="128" fill="#34d399" font-size="22" font-weight="bold" font-family="sans-serif" text-anchor="middle">2.8M</text>
  <rect x="500" y="75" width="130" height="75" rx="10" fill="rgba(245,158,11,0.15)" stroke="rgba(245,158,11,0.4)" stroke-width="1"/>
  <text x="565" y="100" fill="#6b7280" font-size="11" font-family="sans-serif" text-anchor="middle">Tổng bài viết</text>
  <text x="565" y="128" fill="#fbbf24" font-size="22" font-weight="bold" font-family="sans-serif" text-anchor="middle">1,847</text>
  <rect x="645" y="75" width="130" height="75" rx="10" fill="rgba(239,68,68,0.15)" stroke="rgba(239,68,68,0.4)" stroke-width="1"/>
  <text x="710" y="100" fill="#6b7280" font-size="11" font-family="sans-serif" text-anchor="middle">Chu kỳ quét</text>
  <text x="710" y="128" fill="#f87171" font-size="22" font-weight="bold" font-family="sans-serif" text-anchor="middle">4,291</text>
  <!-- Chart area -->
  <rect x="210" y="165" width="380" height="200" rx="10" fill="rgba(20,20,35,0.8)" stroke="rgba(79,70,229,0.2)" stroke-width="1"/>
  <text x="225" y="188" fill="#9ca3af" font-size="12" font-family="sans-serif">Lượt xem theo bài viết (Gần đây)</text>
  <!-- Chart bars -->
  <rect x="230" y="310" width="25" height="40" rx="3" fill="rgba(79,70,229,0.7)"/>
  <rect x="265" y="290" width="25" height="60" rx="3" fill="rgba(79,70,229,0.7)"/>
  <rect x="300" y="270" width="25" height="80" rx="3" fill="rgba(99,102,241,0.8)"/>
  <rect x="335" y="250" width="25" height="100" rx="3" fill="rgba(79,70,229,0.7)"/>
  <rect x="370" y="285" width="25" height="65" rx="3" fill="rgba(79,70,229,0.7)"/>
  <rect x="405" y="260" width="25" height="90" rx="3" fill="rgba(139,92,246,0.9)"/>
  <rect x="440" y="275" width="25" height="75" rx="3" fill="rgba(79,70,229,0.7)"/>
  <rect x="475" y="240" width="25" height="110" rx="3" fill="rgba(99,102,241,0.9)"/>
  <rect x="510" y="265" width="25" height="85" rx="3" fill="rgba(79,70,229,0.7)"/>
  <rect x="545" y="250" width="25" height="100" rx="3" fill="rgba(79,70,229,0.7)"/>
  <!-- Right panel -->
  <rect x="603" y="165" width="177" height="200" rx="10" fill="rgba(20,20,35,0.8)" stroke="rgba(79,70,229,0.2)" stroke-width="1"/>
  <text x="618" y="188" fill="#9ca3af" font-size="12" font-family="sans-serif">Điều khiển Bot</text>
  <!-- Toggles -->
  <text x="618" y="215" fill="#d1d5db" font-size="11" font-family="sans-serif">Bộ quét</text>
  <rect x="725" y="204" width="40" height="20" rx="10" fill="#10b981"/>
  <circle cx="755" cy="214" r="8" fill="white"/>
  <text x="618" y="248" fill="#d1d5db" font-size="11" font-family="sans-serif">Tự động đăng</text>
  <rect x="725" y="237" width="40" height="20" rx="10" fill="#10b981"/>
  <circle cx="755" cy="247" r="8" fill="white"/>
  <text x="618" y="281" fill="#d1d5db" font-size="11" font-family="sans-serif">Chế độ duyệt</text>
  <rect x="725" y="270" width="40" height="20" rx="10" fill="#374151"/>
  <circle cx="735" cy="280" r="8" fill="white"/>
  <text x="618" y="314" fill="#d1d5db" font-size="11" font-family="sans-serif">AI Vision dedup</text>
  <rect x="725" y="303" width="40" height="20" rx="10" fill="#10b981"/>
  <circle cx="755" cy="313" r="8" fill="white"/>
  <!-- Bottom activity log -->
  <rect x="210" y="380" width="570" height="100" rx="10" fill="rgba(20,20,35,0.8)" stroke="rgba(79,70,229,0.2)" stroke-width="1"/>
  <text x="225" y="400" fill="#9ca3af" font-size="12" font-family="sans-serif">Nhật ký hoạt động</text>
  <circle cx="225" cy="420" r="4" fill="#10b981"/>
  <text x="238" y="424" fill="#d1d5db" font-size="11" font-family="sans-serif">✓ Auto-post thành công: PUBG Season 32 highlight [12.4K views]</text>
  <circle cx="225" cy="442" r="4" fill="#6366f1"/>
  <text x="238" y="446" fill="#d1d5db" font-size="11" font-family="sans-serif">📸 AI Vision phát hiện 2 bài trùng, đã bỏ qua</text>
  <circle cx="225" cy="464" r="4" fill="#f59e0b"/>
  <text x="238" y="468" fill="#d1d5db" font-size="11" font-family="sans-serif">⚡ Chu kỳ quét #4291 hoàn tất — 8 bài mới</text>
</svg>